/* XPM */
static char *bitcoin32[] = {
/* columns rows colors chars-per-pixel */
"32 32 212 2 ",
"   c #010000",
".  c #0A0400",
"X  c #0D0902",
"o  c #100500",
"O  c #130A02",
"+  c #1B0D00",
"@  c #100F08",
"#  c #151002",
"$  c #1C1304",
"%  c #161209",
"&  c #18160C",
"*  c #1C180C",
"=  c #260E00",
"-  c #221604",
";  c #231B06",
":  c #291B06",
">  c #301E04",
",  c #2D2306",
"<  c #322303",
"1  c #3E2605",
"2  c #392902",
"3  c #30270A",
"4  c #352B0B",
"5  c #3C2A09",
"6  c #2B2213",
"7  c #322C12",
"8  c #312F1A",
"9  c #36331C",
"0  c #313122",
"q  c #412A06",
"w  c #4A2D04",
"e  c #422F0B",
"r  c #46350C",
"t  c #4A340D",
"y  c #473A0B",
"u  c #5B3B07",
"i  c #56350F",
"p  c #54390B",
"a  c #5B3E0C",
"s  c #443412",
"d  c #4C3C12",
"f  c #41381B",
"g  c #594006",
"h  c #54460B",
"j  c #58430D",
"k  c #48401E",
"l  c #564314",
"z  c #594513",
"x  c #554619",
"c  c #5B471E",
"v  c #5A491D",
"b  c #61430C",
"n  c #614110",
"m  c #674F11",
"M  c #664B1B",
"N  c #704D16",
"B  c #6B541C",
"V  c #6C5A1D",
"C  c #4A4422",
"Z  c #604721",
"A  c #635320",
"S  c #625A2F",
"D  c #725723",
"F  c #745A22",
"G  c #7E5D20",
"H  c #7C5A2B",
"J  c #6D5435",
"K  c #765F33",
"L  c #726033",
"P  c #7D6535",
"I  c #7D6836",
"U  c #7D6339",
"Y  c #665846",
"T  c #766541",
"R  c #7A6841",
"E  c #72664D",
"W  c #805E18",
"Q  c #836425",
"!  c #8B6626",
"~  c #876D26",
"^  c #987226",
"/  c #93722A",
"(  c #9A7929",
")  c #836A34",
"_  c #8C6B30",
"`  c #856D3C",
"'  c #896D3F",
"]  c #86723E",
"[  c #937434",
"{  c #927739",
"}  c #927A38",
"|  c #8D7347",
" . c #867248",
".. c #8B7348",
"X. c #8F794D",
"o. c #927945",
"O. c #9B7C42",
"+. c #907A4B",
"@. c #847955",
"#. c #87795E",
"$. c #937A55",
"%. c #997E54",
"&. c #937E59",
"*. c #8B7A62",
"=. c #837B75",
"-. c #998039",
";. c #AE892D",
":. c #B28120",
">. c #A18736",
",. c #A98633",
"<. c #A78C3E",
"1. c #CFA331",
"2. c #8F834F",
"3. c #978243",
"4. c #9C8244",
"5. c #9C874B",
"6. c #948154",
"7. c #988456",
"8. c #9D8A54",
"9. c #99825C",
"0. c #9C8A5A",
"q. c #A48B45",
"w. c #A18E4A",
"e. c #B89344",
"r. c #B29E47",
"t. c #A28D5C",
"y. c #AB8E58",
"u. c #AE9357",
"i. c #B09A59",
"p. c #BBA446",
"a. c #BCA15D",
"s. c #968562",
"d. c #9C8963",
"f. c #95886B",
"g. c #998F71",
"h. c #9C8F7C",
"j. c #999071",
"k. c #9D9279",
"l. c #9F9A7E",
"z. c #AB9666",
"x. c #A79867",
"c. c #A6956B",
"v. c #AC9A6A",
"b. c #B29B66",
"n. c #B59F6C",
"m. c #B99B6A",
"M. c #A59476",
"N. c #AB9A75",
"B. c #A3987D",
"V. c #B29F76",
"C. c #B29F78",
"Z. c #BBAC63",
"A. c #B6A469",
"S. c #BFA26A",
"D. c #BFA968",
"F. c #AFA276",
"G. c #BCA473",
"H. c #B2A57E",
"J. c #BAB170",
"K. c #C3A852",
"L. c #C4A25C",
"P. c #C8AB5A",
"I. c #CFB257",
"U. c #D1BA51",
"Y. c #D6BB5C",
"T. c #CAA763",
"R. c #C3AD6D",
"E. c #C3B568",
"W. c #D0BA61",
"Q. c #C6AD70",
"!. c #C2AF7C",
"~. c #C0B271",
"^. c #D3BB72",
"/. c #D9BD78",
"(. c #D3C05D",
"). c #D6C267",
"_. c #D4C17D",
"`. c #979793",
"'. c #9F9B92",
"]. c #A89981",
"[. c #ADA183",
"{. c #B5AF81",
"}. c #BAAC83",
"|. c #AEA992",
" X c #AEAB9C",
".X c #B0AC9B",
"XX c #BAB290",
"oX c #B8B3A0",
"OX c #BEBCA2",
"+X c #C0B083",
"@X c #C6BF80",
"#X c #CEBB82",
"$X c #C4B697",
"%X c #C3BCAA",
"&X c #C5C29C",
"*X c #D0C39C",
"=X c #D8C79F",
"-X c #D4CB9D",
";X c #E2D484",
":X c #EAD48A",
">X c #E5D895",
",X c #C9C1A7",
"<X c #D3CCA9",
"1X c #DFDAAF",
"2X c #CDC9B1",
"3X c #C2C1BC",
"4X c #DCD6B2",
"5X c #EBE0A7",
"6X c #EEE4A9",
"7X c #CBD0D3",
"8X c #C8D1DB",
"9X c None",
/* pixels */
"9X9X9X9X9X9X9X9X9X9X9X9X9X9X9X9X9X9X9X9X9X9X9X9X9X9X9X9X9X9X9X9X",
"9X9X9X9X9X9X9X9X9X9X9X9X9X9X9X9X9X9X9X9X9X9X9X9X9X9X9X9X9X9X9X9X",
"9X9X9X9X9X9X9X9X9X9X9X9X9X9X4X5X6X1X9X9X9X9X9X9X9X9X9X9X9X9X9X9X",
"9X9X9X9X9X9X9X9X9X9X9X#X2.S 7 # # 7 V w.:X9X9X9X9X9X9X9X9X9X9X9X",
"9X9X9X9X9X9X9X9X9X}.c       %     $     . G =X9X9X9X9X9X9X9X9X9X",
"9X9X9X9X9X9X9X9X7.O   . < L `   X H I 2 X   + A.9X9X9X9X9X9X9X9X",
"9X9X9X9X9X9X9X0.X   > ] 2X9Xx     p 9X9X .,   . n.9X9X9X9X9X9X9X",
"9X9X9X9X9X9X+X$   r N.9X9XA.    .   S.9X9Xj.y   + *X9X9X9X9X9X9X",
"9X9X9X9X9X9XF   4 F.9X9X9Xv   r s   a 9X9X9Xj.<   B 9X9X9X9X9X9X",
"9X9X9X9X9X^.  . w.9X9X9XR.  & x.&.O   T.9X9X9X] . X #X9X9X9X9X9X",
"9X9X9X9X9X{   p .X9X9X9Xz   Z OX9Xi   u 9X9X9X9Xw   3.9X9X9X9X9X",
"9X9X9X9X9XB   O.9X9X9Xa.  6 f.) _ *.-   L.9X9X9XP   v 9X9X9X9X9X",
"9X9X9X9X{.5 @ m.9X9X9Xz   H -X*.J.].N   g 3X9X9Xu.  C h.9X9X9X9X",
"9X9X9X9X~.> 9 C.9X9XP.  f d.#.^.e.f.&.5   I.9X9Xz.: 9 N.9X9X9X9X",
"9X9X9X9Xb.3 0 !.9X9Xl   -.9XXXr.;.%X9X^   h 2X9X@X- 8 F.9X9X9X9X",
"9X9X9X9X*.d   >X9XK.  k x.9XW.H.'.1.9X&.d   U.9X;X  C N.9X9X9X9X",
"9X9X9X9X9Xb   E.<Xr   >.9X9X).&X[.Y.M.9X,.  h 4XZ.  A oX9X9X9X9X",
"9X9X9X9X9XQ   m q.  s c.9X9XY.k._.:.|.9X*.z   p.V   <.9X9X9X9X9X",
"9X9X9X9X9X..-   O   / 9X9X9Xq.OX[ c.9X9X9X,.  $   7 y.9X9X9X9X9X",
"9X9X9X9X9X9Xn     < B.i.) 9X9X} 0.) o.( Q.=.j     W 9X9X9X9X9X9X",
"9X9X9X9X9X9Xt.    > ,XK X.}.f.8.3.N.}...! $Xe   * R.9X9X9X9X9X9X",
"9X9X9X9X9X9XZ       o 9.|.E @.9X9XE Y l.%.+       ~ 9X9X9X9X9X9X",
"9X9X9X9X9XG..   H 4     X.9X9X9X9X9X9XH     = !   O /.9X9X9X9X9X",
"9X9X9X9X9XD   q 7X`.l   7.9X9X9X9X9X9XJ   q .X8X1   M 9X9X9X9X9X",
"9X9X9X9X/.    d V V -   t.9X9X9X9X9X9XJ   O t t :     G.9X9X9X9X",
"9X9X9X9XD               v.9X9X9X9X9X9XU               t 9X9X9X9X",
"9X9X9X0.o.4.4.4.4.5.8.8.d.9X9X9X9X9X9X .' ' ' I I I R T d.9X9X9X",
"9X9X9X9X9X9X9X9X9X9X9X9X9X9X9X9X9X9X9X9X9X9X9X9X9X9X9X9X9X9X9X9X",
"9X9X9X9X9X9X9X9X9X9X9X9X9X9X9X9X9X9X9X9X9X9X9X9X9X9X9X9X9X9X9X9X",
"9X9X9X9X9X9X9X9X9X9X9X9X9X9X9X9X9X9X9X9X9X9X9X9X9X9X9X9X9X9X9X9X",
"9X9X9X9X9X9X9X9X9X9X9X9X9X9X9X9X9X9X9X9X9X9X9X9X9X9X9X9X9X9X9X9X",
"9X9X9X9X9X9X9X9X9X9X9X9X9X9X9X9X9X9X9X9X9X9X9X9X9X9X9X9X9X9X9X9X"
};
