/* XPM */
static char *bitcoin64[] = {
/* columns rows colors chars-per-pixel */
"64 64 256 2 ",
"   c #010000",
".  c #090501",
"X  c #0D0A03",
"o  c #120C03",
"O  c #1B0E04",
"+  c #110501",
"@  c #1B1405",
"#  c #171509",
"$  c #221405",
"%  c #2C1C06",
"&  c #231D0B",
"*  c #2D1E09",
"=  c #241806",
"-  c #391E06",
";  c #2B220C",
":  c #27200B",
">  c #3C2A0B",
",  c #34270B",
"<  c #3E340E",
"1  c #2E2714",
"2  c #342D12",
"3  c #3B3015",
"4  c #312F23",
"5  c #482809",
"6  c #532D0A",
"7  c #42320D",
"8  c #4D360D",
"9  c #523C0D",
"0  c #563507",
"q  c #423811",
"w  c #433319",
"e  c #4A3C16",
"r  c #533B13",
"t  c #5D3B10",
"y  c #442D10",
"u  c #613B0B",
"i  c #66390A",
"p  c #603B12",
"a  c #58420D",
"s  c #5C4613",
"d  c #5D4B14",
"f  c #59481A",
"g  c #6E4B0E",
"h  c #64410C",
"j  c #7A4B0C",
"k  c #77480B",
"l  c #79540E",
"z  c #624413",
"x  c #6B4513",
"c  c #634B13",
"v  c #6B4C12",
"b  c #6A4E1C",
"n  c #774B12",
"m  c #695517",
"M  c #735314",
"N  c #7B5312",
"B  c #79591B",
"V  c #65540F",
"C  c #7C6718",
"Z  c #6B601F",
"A  c #544626",
"S  c #5E512E",
"D  c #6B542B",
"F  c #665727",
"G  c #795A24",
"H  c #6A5936",
"J  c #775F35",
"K  c #6E4F23",
"L  c #756327",
"P  c #7C6728",
"I  c #6A6234",
"U  c #656236",
"Y  c #796738",
"T  c #7C713C",
"R  c #5E5E41",
"E  c #726345",
"W  c #786D44",
"Q  c #7F7646",
"!  c #7C7258",
"~  c #7F7462",
"^  c #81550E",
"/  c #8A5A15",
"(  c #835714",
")  c #905D12",
"_  c #82641A",
"`  c #88671A",
"'  c #946A1B",
"]  c #986617",
"[  c #94781D",
"{  c #A6761C",
"}  c #AB741C",
"|  c #835B24",
" . c #836422",
".. c #8D6A2A",
"X. c #876727",
"o. c #946923",
"O. c #976B25",
"+. c #8D7323",
"@. c #897528",
"#. c #9B7621",
"$. c #9D7A26",
"%. c #9E7C2B",
"&. c #977429",
"*. c #856B38",
"=. c #8C773D",
"-. c #98783A",
";. c #A67A27",
":. c #887846",
">. c #937A48",
",. c #857B5B",
"<. c #897E5C",
"1. c #867955",
"2. c #8D764E",
"3. c #887D6A",
"4. c #877D70",
"5. c #9D812D",
"6. c #9F8333",
"7. c #9E8238",
"8. c #AB8729",
"9. c #B88726",
"0. c #B8922E",
"q. c #A48737",
"w. c #B78A38",
"e. c #AD9338",
"r. c #B69637",
"t. c #C48B21",
"y. c #C59429",
"u. c #D49D2B",
"i. c #C69A35",
"p. c #D6A628",
"a. c #CDA639",
"s. c #D1A937",
"d. c #DAB72E",
"f. c #E2B93C",
"g. c #DEC334",
"h. c #E5C72E",
"j. c #9C824B",
"k. c #8A815E",
"l. c #948454",
"z. c #988757",
"x. c #878441",
"c. c #A68947",
"v. c #AC9147",
"b. c #A3934D",
"n. c #B39647",
"m. c #A38D53",
"M. c #AB9952",
"N. c #A99659",
"B. c #B39A52",
"V. c #B39A5D",
"C. c #B08943",
"Z. c #BDA34C",
"A. c #B9A458",
"S. c #8C8365",
"D. c #86846C",
"F. c #968964",
"G. c #8B8173",
"H. c #888873",
"J. c #938E7A",
"K. c #9C967C",
"L. c #93917B",
"P. c #9F9565",
"I. c #A79666",
"U. c #B49F68",
"Y. c #A59C7E",
"T. c #B19E74",
"R. c #BEAB6A",
"E. c #B8A567",
"W. c #ACA277",
"Q. c #B6A777",
"!. c #BEB26B",
"~. c #C29E45",
"^. c #C6A749",
"/. c #D4AC47",
"(. c #D7B349",
"). c #C3AA53",
"_. c #CCB254",
"`. c #CAB659",
"'. c #D3BD5A",
"]. c #E1BB47",
"[. c #C1AD66",
"{. c #CAB767",
"}. c #D2BB65",
"|. c #C6B575",
" X c #D2BC72",
".X c #D9C556",
"XX c #E4C94A",
"oX c #E8D15A",
"OX c #F0D556",
"+X c #D8C569",
"@X c #D4C57B",
"#X c #CEC378",
"$X c #EBD76F",
"%X c #FBEF75",
"&X c #96968C",
"*X c #96999C",
"=X c #8B8D8C",
"-X c #A99F82",
";X c #ADA588",
":X c #B5AB8B",
">X c #B7AB85",
",X c #AAA798",
"<X c #BDB698",
"1X c #BEB99C",
"2X c #BAB499",
"3X c #B7B093",
"4X c #9A9BA2",
"5X c #A6A7A9",
"6X c #B8B6A6",
"7X c #ABADB4",
"8X c #ACAEB9",
"9X c #AEB1B7",
"0X c #B9B9B8",
"qX c #B1AEA7",
"wX c #C5B886",
"eX c #C2BA95",
"rX c #C4BC9B",
"tX c #CABF95",
"yX c #C2AF82",
"uX c #C2BEAC",
"iX c #C3BBA3",
"pX c #C1BFB5",
"aX c #CAC18A",
"sX c #CFC293",
"dX c #D5CD97",
"fX c #DFD794",
"gX c #E6D789",
"hX c #E6DB91",
"jX c #F6EB88",
"kX c #C7C3AA",
"lX c #D1C8A5",
"zX c #C7C6B8",
"xX c #D3CCB5",
"cX c #D9D5B9",
"vX c #BABCC2",
"bX c #B6B9C5",
"nX c #AEB3C4",
"mX c #BDC0CA",
"MX c #BFC2D0",
"NX c #CACCCC",
"BX c #C5C7C9",
"VX c #D1CFC8",
"CX c #D6D4C9",
"ZX c #CACDD4",
"AX c #C6C9D5",
"SX c #CED2DB",
"DX c #D9DAD5",
"FX c #D3D6DE",
"GX c #D5D8D8",
"HX c #E1DFC8",
"JX c #E3E5DD",
"KX c #E4E4CF",
"LX c #D8DBE7",
"PX c #DBE0EB",
"IX c #E3E8E8",
"UX c None",
/* pixels */
"UXUXUXUXUXUXUXUXUXUXUXUXUXUXUXUXUXUXUXUXUXUXUXUXUXUXUXUXUXUXUXUXUXUXUXUXUXUXUXUXUXUXUXUXUXUXUXUXUXUXUXUXUXUXUXUXUXUXUXUXUXUXUXUX",
"UXUXUXUXUXUXUXUXUXUXUXUXUXUXUXUXUXUXUXUXUXUXUXUXUXUXUXUXUXUXUXUXUXUXUXUXUXUXUXUXUXUXUXUXUXUXUXUXUXUXUXUXUXUXUXUXUXUXUXUXUXUXUXUX",
"UXUXUXUXUXUXUXUXUXUXUXUXUXUXUXUXUXUXUXUXUXUXUXUXUXUXUXUXUXUXUXUXUXUXUXUXUXUXUXUXUXUXUXUXUXUXUXUXUXUXUXUXUXUXUXUXUXUXUXUXUXUXUXUX",
"UXUXUXUXUXUXUXUXUXUXUXUXUXUXUXUXUXUXUXUXUXUXUXUXUXUXUXUXUXUXUXUXUXUXUXUXUXUXUXUXUXUXUXUXUXUXUXUXUXUXUXUXUXUXUXUXUXUXUXUXUXUXUXUX",
"UXUXUXUXUXUXUXUXUXUXUXUXUXUXUXUXUXUXUXUXUXUXUXUXUXUXUXUXUXUXUXUXUXUXUXUXUXUXUXUXUXUXUXUXUXUXUXUXUXUXUXUXUXUXUXUXUXUXUXUXUXUXUXUX",
"UXUXUXUXUXUXUXUXUXUXUXUXUXUXUXUXUXUXUXUXUXUXUXUXUXUXUXkXlXdXgXgXgXhXfXdXzXFXUXUXUXUXUXUXUXUXUXUXUXUXUXUXUXUXUXUXUXUXUXUXUXUXUXUX",
"UXUXUXUXUXUXUXUXUXUXUXUXUXUXUXUXUXUXUXUXUXUXUXCX<X@X+XN.:.d q 2 2 q F P r.XX$XsXGXUXUXUXUXUXUXUXUXUXUXUXUXUXUXUXUXUXUXUXUXUXUXUX",
"UXUXUXUXUXUXUXUXUXUXUXUXUXUXUXUXUXUXUXUXUXzXQ.e.L :           . . .     .   * &.f. XDXUXUXUXUXUXUXUXUXUXUXUXUXUXUXUXUXUXUXUXUXUX",
"UXUXUXUXUXUXUXUXUXUXUXUXUXUXUXUXUXUXUXUXP. .>                       .             c t.|.LXUXUXUXUXUXUXUXUXUXUXUXUXUXUXUXUXUXUXUX",
"UXUXUXUXUXUXUXUXUXUXUXUXUXUXUXUXUXUX1XP 5               # 3         > &               u ;.cXUXUXUXUXUXUXUXUXUXUXUXUXUXUXUXUXUXUX",
"UXUXUXUXUXUXUXUXUXUXUXUXUXUXUXUXUXI.u X           & f e 7 b O     > 8 5 h c 2           O j aXUXUXUXUXUXUXUXUXUXUXUXUXUXUXUXUXUX",
"UXUXUXUXUXUXUXUXUXUXUXUXUXUXUXUXl.0           , h 9 H W.1XB         k lX;XU 0 M <         . 0 !.UXUXUXUXUXUXUXUXUXUXUXUXUXUXUXUX",
"UXUXUXUXUXUXUXUXUXUXUXUXUXUXUXl.u         @ v a F.cXUX0XM.:         - c.vXUXCXS.a m @         6 [.UXUXUXUXUXUXUXUXUXUXUXUXUXUXUX",
"UXUXUXUXUXUXUXUXUXUXUXUXUXUXU.h         7 c T xXUXUXUX2X .            j cXUXUXUXVXQ V q         0 aXUXUXUXUXUXUXUXUXUXUXUXUXUXUX",
"UXUXUXUXUXUXUXUXUXUXUXUXUXeXM         s s Q.SXUXUXUXUXM.;             ; n.UXUXUXUXUXY.d d         g cXUXUXUXUXUXUXUXUXUXUXUXUXUX",
"UXUXUXUXUXUXUXUXUXUXUXUXUX%.@       d c rXUXUXUXUXUX1XX.  .   o =       ^ xXUXUXUXUXUXqXd d       o #.IXUXUXUXUXUXUXUXUXUXUXUXUX",
"UXUXUXUXUXUXUXUXUXUXUXUXE.0       q m sXUXUXUXUXUXUXB.:       9 z       * w.FXUXUXUXUXUX,Xm <       r R.UXUXUXUXUXUXUXUXUXUXUXUX",
"UXUXUXUXUXUXUXUXUXUXUXuX8.      # ` Q.UXUXUXUXUXUXeXX.  .   e L H y       ( lXUXUXUXUXUXUXK.l # .     #.KXUXUXUXUXUXUXUXUXUXUXUX",
"UXUXUXUXUXUXUXUXUXUXUX{.8       @.x.mXUXUXUXUXUXUXZ.&     X Y sXiXx       = y.LXUXUXUXUXUXUXQ M       f ).UXUXUXUXUXUXUXUXUXUXUX",
"UXUXUXUXUXUXUXUXUXUXqXa.      q ` kXUXUXUXUXUXUXwXX.      I @.mXUXD r       ) tXUXUXUXUXUXUX4XM <       r.DXUXUXUXUXUXUXUXUXUXUX",
"UXUXUXUXUXUXUXUXUXUXaXj       &.z.UXUXUXUXUXUXUXZ.@     # | yXUXUXL.j .     O y.PXUXUXUXUXUXUX! j       =.E.UXUXUXUXUXUXUXUXUXUX",
"UXUXUXUXUXUXUXUXUXUX_.*     , / zXUXUXUXUXUXUXaXG       J P 8XE.UXUXH t       / wXUXUXUXUXUXUX*X( =     3 ).bXUXUXUXUXUXUXUXUXUX",
"UXUXUXUXUXUXUXUXUX&X/.      G *.5XUXUXUXUXUXUX~.X     $ K iXN.K | V.&Xk o     + 9.IXUXUXUXUXUXUXH z       ~.VXUXUXUXUXUXUXUXUXUX",
"UXUXUXUXUXUXUXUXUXJ.0.      ;.K.UXUXUXUXUXUX|.B       -.J ,Xb :XUX( qXH n       ' T.UXUXUXUXUXUXH.(       v.;XUXUXUXUXUXUXUXUXUX",
"UXUXUXUXUXUXUXUXUXW.`     # O.zXUXUXUXUXUX6X/.X     1 | lXR.J UXUXZ.2.qX( =     . y.IXUXUXUXUXUX4X{       c.F.UXUXUXUXUXUXUXUXUX",
"UXUXUXUXUXUXUXUXUXE.M .   e &.BXUXUXUXUXUX|.B       C.E ZX[.z.UXUX).>.BXE ]       ' U.UXUXUXUXUXUX5.@     :.2.UXUXUXUXUXUXUXUXUX",
"UXUXUXUXUXUXUXUXUXA.d     I c.vXUXUXUXUX6X]..     w X.iXUX>.^.PXNXs.>.UX5X) >       p.JXUXUXUXUXUXc.7     T j.UXUXUXUXUXUXUXUXUX",
"UXUXUXUXUXUXUXUXUX^.s     W c.vXUXUXUXUX XB       ~.2.UXUX! ^.}.r.) P.UXUXE 9.      [ R.UXUXUXUXUXc.f     I j.UXUXUXUXUXUXUXUXUX",
"UXUXUXUXUXUXUXUXUXn.d     W n.vXUXUXUX6X].      A +.kXUXUX7Xn.+XoX/ NXUXUX*X] e       d.DXUXUXUXUX[.a     U j.UXUXUXUXUXUXUXUXUX",
"UXUXUXUXUXUXUXUXUXv.B     R ).vXUXUXUX+Xm       ).z.UXUXUX_.).P *.y.w.LXUXUX:.y.      C .XUXUXUXUX}.<     I n.UXUXUXUXUXUXUXUXUX",
"UXUXUXUXUXUXUXUXUX>.+.    4 .XMXUXUX1X].      S $.0XUXUX}.+X@.DXLX..y.'.UXUX*X{ f .     h.CXUXUXUXoX=     :.m.UXUXUXUXUXUXUXUXUX",
"UXUXUXUXUXUXUXUXUX1.$.      $XmXUXUX}.s   .   Z.m.UXUXK.hX5.iXE.UX*X;.XXkXUXUX! u.      m .XUXUX*X$X      b.N.UXUXUXUXUXUXUXUXUX",
"UXUXUXUXUXUXUXUXUXH.9.      '.eXUXrXs.      F [ 0XUXUXP.jXq.nX{.N.5X-.%XN.UXUXUXO.Z       h.xXUX-X`.      Z.Q.UXUXUXUXUXUXUXUXUX",
"UXUXUXUXUXUXUXUXUX*X9.      x.[.FX_.8       e.I.UXUXUXz.jXN.nX#XA.vX[.oXI.UXUXUX<.p.      c .XPXdXC     & e.kXUXUXUXUXUXUXUXUXUX",
"UXUXUXUXUXUXUXUXUXUX| d     O XXzX9.      Z +.0XUXUXUXk.jXV.8XA.+XLX).i.I.UXUXUXUXo.P       g.1XOXX     I 8.9XUXUXUXUXUXUXUXUXUX",
"UXUXUXUXUXUXUXUXUXUX:.`       ] 0.>     . #.U.UXUXUXUX=X~.'.nX*./.Z.9.^ eXUXUXUXUXD.p.      a a.8.      Z.j.UXUXUXUXUXUXUXUXUXUX",
"UXUXUXUXUXUXUXUXUXUX=X] o     o 7       m ` 7XUXUXUXUXUXB +XiX,X..i.i I.UXUXUXUXUXUX| @.      M X .   1 ;.eXUXUXUXUXUXUXUXUXUXUX",
"UXUXUXUXUXUXUXUXUXUXUXD M             X ( Q.UXUXUXUXUXUXK.-.`.9X;XK Q.pX>X>XuXUXUXUXH.t.X       .     6.O.7XUXUXUXUXUXUXUXUXUXUX",
"UXUXUXUXUXUXUXUXUXUXUXK.j o           d G 7XUXV.&.v A.UXUXS.+.aXUXwXX.g M _ 8.a.|.UX4XG +.          ; ' yXUXUXUXUXUXUXUXUXUXUXUX",
"UXUXUXUXUXUXUXUXUXUXUXUXJ n         o u wX5XM.&.*.qXUXUXUXUXF.C m.V >.-XqX2XF.x } @XUX&X{ X         $.@.7XUXUXUXUXUXUXUXUXUXUXUX",
"UXUXUXUXUXUXUXUXUXUXUXUX4X_ $       ; N DXBXb ..m.NXUXUXUXUXUXT.e.6XUXUXUXUX0Xz.} ( MX0X0.=       F l kXUXUXUXUXUXUXUXUXUXUXUXUX",
"UXUXUXUXUXUXUXUXUXUXUXUXqX...         O v cXqXF f &.V.U.I.Y L M.=.P :.E.R.B...p h eXrX' %         o d.AXUXUXUXUXUXUXUXUXUXUXUXUX",
"UXUXUXUXUXUXUXUXUXUXUXUXQ.-             + 0 T.ZX:XE A A S l.Y.UXUXUXT A w w S T.zXP.N o             ` |.UXUXUXUXUXUXUXUXUXUXUXUX",
"UXUXUXUXUXUXUXUXUXUXUXzX| .     . .         - X.3XNXUXUXUXUXUXUXUXUXUXUXUXUXzX-X| 6         o         y.IXUXUXUXUXUXUXUXUXUXUXUX",
"UXUXUXUXUXUXUXUXUXUXUXU.-       6 v ;           K :XUXUXUXUXUXUXUXUXUXUXUXUXF.i .         $ u N       v [.UXUXUXUXUXUXUXUXUXUXUX",
"UXUXUXUXUXUXUXUXUXUXpXO.      $ t W.s f         f :XUXUXUXUXUXUXUXUXUXUXUXUX3.6         - 5 P.x ;       { JXUXUXUXUXUXUXUXUXUXUX",
"UXUXUXUXUXUXUXUXUXUXE.6       x z.SX;Xr  .      D :XUXUXUXUXUXUXUXUXUXUXUXUXS.5     . 5 6 >XGXk.u       8 E.UXUXUXUXUXUXUXUXUXUX",
"UXUXUXUXUXUXUXUXUXuX9.      3 v GXFXZXvX0.      D Q.UXUXUXUXUXUXUXUXUXUXUXUXS.5     # ` CXFXGXAXb %       ' KXUXUXUXUXUXUXUXUXUX",
"UXUXUXUXUXUXUXUXUX{.0       e a./.(.(.^.]       Y Q.UXUXUXUXUXUXUXUXUXUXUXUX3.5       u o.&.&.O.N $       > B.UXUXUXUXUXUXUXUXUX",
"UXUXUXUXUXUXUXUXiXi.                            *.Q.UXUXUXUXUXUXUXUXUXUXUXUXS.6                             l HXUXUXUXUXUXUXUXUX",
"UXUXUXUXUXUXUXUX}.6                             :.Q.UXUXUXUXUXUXUXUXUXUXUXUXS.p                             * v.AXUXUXUXUXUXUXUX",
"UXUXUXUXUXUXUX;X;..                             j.,XUXUXUXUXUXUXUXUXUXUXUXUXS.v                               x rXUXUXUXUXUXUXUX",
"UXUXUXUXUXUXUXn.{ $.$.$.$.$.%.%.%.6.5.6.6.6.6.7.7.-XUXUXUXUXUXUXUXUXUXUXUXUX1.( N N l l l g g v v c b c d s z m =.UXUXUXUXUXUXUX",
"UXUXUXUXUXUXUX1.,.4.4.3.,.,.,.,.,.,.,.G.4.G.G.4.3.-XUXUXUXUXUXUXUXUXUXUXUXUXUX~ 4.G.G.G.G.G.<.<.<.<.<.<.G.G.G.3.1.UXUXUXUXUXUXUX",
"UXUXUXUXUXUXUXUXUXUXUXUXUXUXUXUXUXUXUXUXUXUXUXUXUXUXUXUXUXUXUXUXUXUXUXUXUXUXUXUXUXUXUXUXUXUXUXUXUXUXUXUXUXUXUXUXUXUXUXUXUXUXUXUX",
"UXUXUXUXUXUXUXUXUXUXUXUXUXUXUXUXUXUXUXUXUXUXUXUXUXUXUXUXUXUXUXUXUXUXUXUXUXUXUXUXUXUXUXUXUXUXUXUXUXUXUXUXUXUXUXUXUXUXUXUXUXUXUXUX",
"UXUXUXUXUXUXUXUXUXUXUXUXUXUXUXUXUXUXUXUXUXUXUXUXUXUXUXUXUXUXUXUXUXUXUXUXUXUXUXUXUXUXUXUXUXUXUXUXUXUXUXUXUXUXUXUXUXUXUXUXUXUXUXUX",
"UXUXUXUXUXUXUXUXUXUXUXUXUXUXUXUXUXUXUXUXUXUXUXUXUXUXUXUXUXUXUXUXUXUXUXUXUXUXUXUXUXUXUXUXUXUXUXUXUXUXUXUXUXUXUXUXUXUXUXUXUXUXUXUX",
"UXUXUXUXUXUXUXUXUXUXUXUXUXUXUXUXUXUXUXUXUXUXUXUXUXUXUXUXUXUXUXUXUXUXUXUXUXUXUXUXUXUXUXUXUXUXUXUXUXUXUXUXUXUXUXUXUXUXUXUXUXUXUXUX",
"UXUXUXUXUXUXUXUXUXUXUXUXUXUXUXUXUXUXUXUXUXUXUXUXUXUXUXUXUXUXUXUXUXUXUXUXUXUXUXUXUXUXUXUXUXUXUXUXUXUXUXUXUXUXUXUXUXUXUXUXUXUXUXUX",
"UXUXUXUXUXUXUXUXUXUXUXUXUXUXUXUXUXUXUXUXUXUXUXUXUXUXUXUXUXUXUXUXUXUXUXUXUXUXUXUXUXUXUXUXUXUXUXUXUXUXUXUXUXUXUXUXUXUXUXUXUXUXUXUX",
"UXUXUXUXUXUXUXUXUXUXUXUXUXUXUXUXUXUXUXUXUXUXUXUXUXUXUXUXUXUXUXUXUXUXUXUXUXUXUXUXUXUXUXUXUXUXUXUXUXUXUXUXUXUXUXUXUXUXUXUXUXUXUXUX",
"UXUXUXUXUXUXUXUXUXUXUXUXUXUXUXUXUXUXUXUXUXUXUXUXUXUXUXUXUXUXUXUXUXUXUXUXUXUXUXUXUXUXUXUXUXUXUXUXUXUXUXUXUXUXUXUXUXUXUXUXUXUXUXUX",
"UXUXUXUXUXUXUXUXUXUXUXUXUXUXUXUXUXUXUXUXUXUXUXUXUXUXUXUXUXUXUXUXUXUXUXUXUXUXUXUXUXUXUXUXUXUXUXUXUXUXUXUXUXUXUXUXUXUXUXUXUXUXUXUX"
};
